<?xml version="1.0" standalone="no"?>
<!DOCTYPE svg PUBLIC "-//W3C//DTD SVG 20010904//EN"
 "http://www.w3.org/TR/2001/REC-SVG-20010904/DTD/svg10.dtd">
<svg version="1.0" xmlns="http://www.w3.org/2000/svg"
 width="800.000000pt" height="800.000000pt" viewBox="0 0 800.000000 800.000000"
 preserveAspectRatio="xMidYMid meet">
<metadata>
Created by potrace 1.14, written by Peter Selinger 2001-2017
</metadata>
<g transform="translate(0.000000,800.000000) scale(0.100000,-0.100000)"
fill="#000000" stroke="none">
<path d="M2278 6916 c-1 -2 -32 -6 -68 -10 -90 -9 -259 -47 -320 -72 -3 -1
-16 -5 -28 -9 -13 -4 -60 -25 -104 -46 -249 -121 -433 -332 -542 -623 -29 -75
-62 -198 -71 -262 -4 -21 -8 -46 -10 -54 -3 -8 -8 -49 -12 -90 -10 -97 -10
-3461 0 -3560 33 -324 128 -560 292 -726 132 -132 287 -219 450 -250 11 -2 31
-6 45 -9 125 -28 447 -28 589 0 22 4 82 14 131 21 101 15 403 113 445 144 6 5
33 20 60 35 315 173 542 509 609 903 27 156 30 211 30 662 l1 445 -55 -1 c-30
0 -129 -4 -220 -7 -279 -12 -432 -18 -502 -21 -37 -1 -70 -5 -74 -8 -3 -4 -7
-224 -9 -490 -2 -464 -3 -486 -25 -558 -54 -185 -179 -297 -367 -327 -83 -13
-214 -8 -277 11 -108 32 -196 146 -223 286 -4 19 -7 786 -7 1704 -1 1817 -2
1772 55 1893 84 176 277 258 514 217 159 -26 256 -115 311 -284 15 -48 18
-106 22 -452 l4 -397 116 4 c65 2 254 7 422 10 167 4 307 8 310 10 8 5 4 703
-4 780 -4 33 -11 86 -17 117 -5 32 -12 70 -15 85 -11 62 -58 203 -93 279 -118
252 -313 438 -574 545 -80 33 -228 74 -302 85 -28 3 -59 8 -70 11 -22 5 -411
13 -417 9z"/>
<path d="M4078 6839 c-7 -4 4 -47 30 -115 22 -60 84 -226 137 -369 53 -143
116 -312 140 -375 24 -63 60 -160 80 -215 20 -55 41 -111 47 -125 5 -13 40
-108 78 -210 38 -102 73 -197 79 -210 5 -14 62 -167 126 -340 64 -173 127
-342 140 -375 12 -33 46 -124 75 -202 l52 -142 -52 -138 c-29 -76 -63 -165
-75 -198 -13 -33 -69 -181 -125 -330 -56 -148 -172 -454 -257 -680 -86 -225
-166 -437 -178 -470 -12 -33 -25 -67 -28 -75 -4 -8 -29 -76 -57 -150 -28 -74
-101 -267 -161 -428 -61 -161 -109 -295 -107 -298 5 -4 442 -15 713 -18 l139
-1 24 65 c47 123 80 215 135 370 77 214 220 614 266 740 68 187 127 352 187
519 33 90 64 166 70 168 7 2 70 -173 159 -444 164 -500 393 -1194 464 -1408
l46 -140 85 -17 c47 -9 103 -19 125 -22 42 -6 143 -23 184 -31 13 -2 132 -23
265 -45 133 -23 251 -44 264 -47 12 -3 22 -3 22 -1 0 3 -16 52 -36 109 -36
103 -90 261 -224 654 -75 217 -111 322 -280 815 -62 179 -161 469 -222 645
-127 371 -204 595 -246 716 -28 82 -29 88 -15 130 16 47 72 202 103 284 11 28
175 480 366 1005 191 525 362 998 381 1050 109 299 122 341 110 345 -6 2 -198
3 -426 2 l-413 -2 -24 -65 c-60 -170 -242 -691 -354 -1015 -28 -82 -62 -179
-75 -215 -13 -36 -45 -126 -70 -200 -84 -245 -98 -280 -106 -286 -5 -3 -9 -4
-9 -2 0 2 -32 95 -71 208 -72 210 -116 338 -257 750 -214 629 -281 823 -285
826 -6 6 -929 9 -939 3z"/>
</g>
</svg>
